<svg xmlns="http://www.w3.org/2000/svg" width="250" height="250" viewBox="0 0 250 250" fill="none">
<path d="M 124.09,7.03 C 59.88,7.03 6.95,59.96 6.95,125.11 C 6.95,189.39 59.88,242.97 123.86,242.97 C 188.82,242.97 243.05,190.04 243.05,125.11 C 243.05,61.61 190.6,7.03 124.09,7.03 Z M 123.63,232.84 C 107.82,232.84 94.11,229.81 82.82,223.95 C 93.11,217.18 100.01,209.68 104.52,200.11 C 85.78,201.11 66.11,187.16 57.62,164.74 C 48.89,171.07 41.91,179.72 37.22,188.11 C 23.97,170.17 16.15,149.01 16.15,125.11 C 16.15,67.29 64.08,16.2 123.41,16.2 C 182.96,16.2 233.82,64.9 233.82,125.11 C 233.82,182.02 186.13,232.84 123.63,232.84 Z" fill="#E53A36"/>
<path d="M 138.99,52.09 C 96.19,55.93 66.01,92.16 64.55,130.42 C 71.82,122.25 79.99,118.86 89.99,118.86 C 98.16,118.86 104.94,120.88 113.33,124.72 L 119.22,118.86 C 121.73,116.35 121.96,112.28 118.76,107.18 C 116.97,104.15 116.27,102.62 117.72,101.65 L 123.81,95.56 C 122.83,86.16 122.09,73.41 139.73,55.46 C 141.75,53.92 141.51,51.91 138.99,52.09 Z" fill="#E53A36"/>
<path d="M 199.87,116.35 C 188.11,129.59 177.82,132.62 164.32,132.12 C 162.56,131.79 162.06,131.61 160.79,133.14 L 155.92,139.73 C 154.95,140.96 153.18,139.73 148.32,136.7 C 145.29,135.16 141.75,135.41 139.73,138.19 L 133.14,145.85 C 141.03,162.56 139.24,178.76 125.01,192.74 C 164.28,189.71 197.61,159.53 202.71,118.12 C 203.21,115.09 202.21,114.34 199.87,116.35 Z" fill="#E53A36"/>
<path d="M 166.83,58.97 C 149.12,58.97 135.38,73.41 135.38,90.12 C 135.38,97.01 137.65,102.62 140.94,107.22 L 135.84,120.72 L 150.28,115.62 C 155.38,118.39 160.25,119.36 166.34,119.36 C 182.54,119.36 196.28,103.91 196.28,89.46 C 196.28,73.26 183.54,58.97 166.83,58.97 Z M 166.34,70.46 C 171.19,70.46 172.91,74.73 172.91,77.01 V 86.41 C 172.91,90.65 169.88,93.68 166.34,93.68 C 162.56,93.68 159.53,90.65 159.53,86.91 V 77.51 C 159.53,73.73 162.06,70.46 166.34,70.46 Z M 177.78,90.65 C 176.78,97.24 170.92,100.78 167.62,100.78 V 105.4 H 171.16 C 172.16,105.4 172.66,105.9 172.66,106.89 C 172.66,107.64 171.91,108.14 171.16,108.14 H 161.52 C 160.52,108.14 159.78,107.64 159.78,106.64 C 159.78,105.65 160.52,105.15 161.27,105.15 H 164.81 V 100.53 C 158.72,99.79 153.11,94.69 152.61,88.1 C 152.61,86.86 153.11,86.36 154.11,86.36 C 155.1,86.36 155.6,87.11 155.6,87.85 C 156.1,93.46 160.52,97.49 166.11,97.49 C 171.69,97.49 176.11,93.21 176.61,88.1 C 176.61,87.11 177.11,86.61 178.11,86.86 C 179.1,86.86 178.85,88.1 177.78,90.65 Z" fill="#E53A36"/>
<path d="M 91.22,124.47 C 73.51,124.47 61.75,137.72 61.75,154.43 C 61.75,173.89 79.19,194.32 102.36,194.32 C 118.56,194.32 132.06,181.08 132.06,166.11 C 132.06,146.65 114.62,124.47 91.22,124.47 Z" fill="#E53A36"/>
</svg>